<svg xmlns="http://www.w3.org/2000/svg" id="Capa_1" data-name="Capa 1" viewBox="0 0 552.17 123.74"><defs><style>.cls-1,.cls-2{fill:#fff;}.cls-2{font-size:17.16px;font-family:MyriadPro-Regular, Myriad Pro;}.cls-3{fill:none;stroke:#fff;stroke-miterlimit:10;}</style></defs><title>logo-duoc</title><path class="cls-1" d="M9.09,39.65a164.61,164.61,0,0,1,27.58-2c17.35,0,28.65,2.82,37.27,9.42,9.41,7,15.33,18.3,15.33,34.45,0,17.34-6.32,29.31-14.93,36.71-9.55,8-24.22,11.71-42,11.71a174.24,174.24,0,0,1-23.27-1.35ZM29.54,113.5a37.88,37.88,0,0,0,7.13.41c18.7.13,30.94-10.09,30.94-31.75,0-19.51-11-28.79-28.79-28.79a43.12,43.12,0,0,0-9.28.81Z" transform="translate(-9.09 -11.72)"/><path class="cls-1" d="M159,107.86c0,8.6.27,15.6.54,21.11H141.73l-.94-9.28h-.41c-2.55,4-8.74,10.77-20.57,10.77-13.46,0-23.14-8.35-23.14-28.66V63.19h20.45V98.57c0,9.56,3.09,15.34,10.35,15.34a11.32,11.32,0,0,0,11-11.57V63.19H159Z" transform="translate(-9.09 -11.72)"/><path class="cls-1" d="M200.49,130.46c-19.24,0-34-12.66-34-33.91s14-34.84,35.24-34.84c20.05,0,33.5,13.86,33.5,33.76,0,24-17.09,35-34.57,35Zm.4-14.67c8.08,0,13.05-7.93,13.05-19.78,0-9.68-3.76-19.64-13.05-19.64-9.68,0-13.45,10-13.45,19.78,0,11.17,4.71,19.64,13.32,19.64Z" transform="translate(-9.09 -11.72)"/><path class="cls-1" d="M295.35,127.36c-3.64,1.75-10.5,3.1-18.3,3.1-21.26,0-34.84-13.05-34.84-33.77,0-19.24,13.18-35,37.66-35a47.25,47.25,0,0,1,15.61,2.56l-3.23,15.2a28,28,0,0,0-11.43-2c-10.77,0-17.76,7.67-17.63,18.43,0,12.11,8.07,18.57,18,18.57a28.74,28.74,0,0,0,11.7-2.16Z" transform="translate(-9.09 -11.72)"/><path class="cls-1" d="M334.41,45.44V93.81c0,14.46,5.49,21.82,15.21,21.82,10,0,15.46-7,15.46-21.82V45.44H384V92.56c0,25.93-13.09,38.28-35,38.28-21.2,0-33.66-11.72-33.66-38.52V45.44Z" transform="translate(-9.09 -11.72)"/><path class="cls-1" d="M459.13,127.1c-3.49,1.74-11.35,3.74-21.57,3.74-29.05,0-44-18.2-44-42.14,0-28.67,20.44-44.63,45.87-44.63,9.84,0,17.33,2,20.7,3.75L456.26,62.9a41,41,0,0,0-16-3.12c-15.08,0-26.8,9.1-26.8,27.8,0,16.83,10,27.43,26.93,27.43a47.64,47.64,0,0,0,15.83-2.74Z" transform="translate(-9.09 -11.72)"/><path class="cls-1" d="M530.49,67a.95.95,0,1,0-1-.94A.95.95,0,0,0,530.49,67Z" transform="translate(-9.09 -11.72)"/><path class="cls-1" d="M500.4,103.93a.28.28,0,0,0-.27.28.28.28,0,1,0,.55,0A.28.28,0,0,0,500.4,103.93Z" transform="translate(-9.09 -11.72)"/><path class="cls-1" d="M512.18,104.49a.28.28,0,0,0,.28-.28.29.29,0,0,0-.28-.28.28.28,0,0,0-.28.28A.27.27,0,0,0,512.18,104.49Z" transform="translate(-9.09 -11.72)"/><path class="cls-1" d="M483.83,95.53l2.27,1.31a7,7,0,0,0-.06.92c0,3,1.74,5.36,5.21,6.07l.58.15-.57,5.62v.05a2.39,2.39,0,0,0,4.76,0v-.05l-.59-5.86h-.15v-.4a2.22,2.22,0,0,0-.71-1.59,3,3,0,0,0,1.5-.37,3.32,3.32,0,0,0,1.39-1.87l.17-.65,1.61-.93v.4a3.37,3.37,0,0,0,1,2.42v1.6a4.61,4.61,0,0,0-2,1.08l-.44.4.13.77a1.71,1.71,0,0,1,.06.26,2.75,2.75,0,0,0,2.53,1.32,4.54,4.54,0,0,0,1.06-.14h0a8,8,0,0,1,.63,1,3.5,3.5,0,0,0,.86,1.09,2.87,2.87,0,0,0,.36,4.28,2.63,2.63,0,0,0-.48,1.53,2.84,2.84,0,0,0,1.08,2.27,2,2,0,0,0-.16.77,2.24,2.24,0,0,0,1,1.86,1.43,1.43,0,0,0,1.42,1.36,1.45,1.45,0,0,0,1.44-1.36,2.26,2.26,0,0,0,1-1.86,2,2,0,0,0-.16-.77,2.83,2.83,0,0,0,1.07-2.27,2.62,2.62,0,0,0-.47-1.53,2.87,2.87,0,0,0,.36-4.28,3.65,3.65,0,0,0,.86-1.09,7,7,0,0,1,.63-1h0a4.54,4.54,0,0,0,1.06.14,2.73,2.73,0,0,0,2.52-1.32c0-.06.06-.26.06-.26l.14-.76-.45-.41a4.78,4.78,0,0,0-1.66-1V101A3.34,3.34,0,0,0,514,98.33v-1h-3.46a5.51,5.51,0,0,0-8.11,0h-2.1l3.07-1.78a.27.27,0,0,0,.1-.37.27.27,0,0,0-.37-.11l-5.77,3.34-.48-.13a3.79,3.79,0,0,0,.34-1.15l.06-.68,4.19-3.52a.27.27,0,0,0,0-.39.28.28,0,0,0-.39,0L496.89,96l-.19,0c0-.13.07-.26.1-.39l1.4-1.67-.48-.44-.28-.25L499.3,91a.28.28,0,0,0,0-.39.27.27,0,0,0-.39,0L497,92.91a7.55,7.55,0,0,0-4.36-1.34,7.29,7.29,0,0,0-3,.63l-1.29-1.53a.27.27,0,0,0-.38,0,.27.27,0,0,0,0,.39l1.21,1.43a6.12,6.12,0,0,0-1.55,1.25l-1.48-1.24a.28.28,0,0,0-.36.42l1.49,1.24a5.86,5.86,0,0,0-1,2.14l-2.12-1.22a.27.27,0,0,0-.37.11A.27.27,0,0,0,483.83,95.53Zm19.33,11a6.5,6.5,0,0,0-1-1.49c-.37-.37-.84,0-1.66,0a2,2,0,0,1-1.51-.58l-.05-.29a3.3,3.3,0,0,1,1.9-.87c.94,0,2.2.47,3.31,2.7a2.38,2.38,0,0,0,1.06.93,11.4,11.4,0,0,0-1.17.57A2.71,2.71,0,0,1,503.16,106.56Zm.57-3h.62c0,.31.07,1.13.07,1.13A7.77,7.77,0,0,0,503.73,103.59Zm3.59,12.18a3.18,3.18,0,0,0-.89.55.43.43,0,0,0,0,.62.44.44,0,0,0,.62,0,2.5,2.5,0,0,1,.59-.37,1.15,1.15,0,0,1,.06.37,1.24,1.24,0,0,1-1,1.17l0,.61a.38.38,0,0,1-.38.37.37.37,0,0,1-.36-.37l0-.61a1.25,1.25,0,0,1-1-1.17,1.41,1.41,0,0,1,.2-.71,5.82,5.82,0,0,1,1.92-1.66l.1-.06s0,0,0,0h0l0,0s0,0,.05,0a.66.66,0,0,0,.22-.51.73.73,0,0,0-.31-.54l.25-.12c.27-.14.53-.26.77-.4a1.61,1.61,0,0,1,.4,1.06A2,2,0,0,1,507.32,115.77Zm.15-3.51h0l-.44.22a9.49,9.49,0,0,0-1.4.78l-.1.07,0,0h0a.82.82,0,0,0-.36.58.77.77,0,0,0,.46.69,5.83,5.83,0,0,0-.82.74,1.56,1.56,0,0,1-.74-1.43,1.8,1.8,0,0,1,.78-1.44l0,0a12.1,12.1,0,0,1,1.62-1l.54-.29c.65-.33,1.15-.64,1.15-1.09s-.3-.74-.76-1c.39-.17.78-.34,1.14-.53a2,2,0,0,1,.73,1.52C509.26,111.16,508.35,111.79,507.47,112.26Zm-1.65-2.19a.49.49,0,0,1,.48-.49.49.49,0,1,1,0,1A.49.49,0,0,1,505.82,110.07Zm7.85-5.84,0,.29a2,2,0,0,1-1.5.58c-.82,0-1.3-.4-1.67,0a6.52,6.52,0,0,0-1,1.49,3.08,3.08,0,0,1-1.14,1.18,16.19,16.19,0,0,1-1.62.76c-.36.15-.74.31-1.08.47h0c-.67.3-1.16.64-1.16,1.19,0,.39.38.69.91,1a9.65,9.65,0,0,0-1,.65,2,2,0,0,1-1-1.63,2.15,2.15,0,0,1,1.18-1.85,14.27,14.27,0,0,1,1.7-.78,8.85,8.85,0,0,0,1.5-.71h0a2,2,0,0,0,.71-.74c1.12-2.23,2.38-2.73,3.31-2.7A3.23,3.23,0,0,1,513.67,104.23Zm-8.27-.64h1.81l-.11,2.57a9.66,9.66,0,0,1-1.21.54l-.36.15Zm2.74,1.17s.11-.86.12-1.17h.62A9.11,9.11,0,0,0,508.14,104.76Zm-8-6.57h3.31a.59.59,0,0,1,.59.59v.8c.18,0,.58,0,.75,0v-.8a1.35,1.35,0,0,0-.89-1.25l-.24-.09.21-.15a4.53,4.53,0,0,1,5.34.08l.18.13-.2.1a1.33,1.33,0,0,0-.72,1.18v.8c.17,0,.57,0,.75,0v-.8a.59.59,0,0,1,.59-.59h3.31v.14a2.48,2.48,0,0,1-.14.82h-2.26v.37h2.12a1.87,1.87,0,0,1-1.74,1.1h-.86c0,.18,0,.57,0,.75h.87l.36,0h.34v1.3H501.17v-1.3h.63l.35,0H503c0-.18,0-.57,0-.75h-.86a1.84,1.84,0,0,1-1.74-1.1h2.07v-.37h-2.22a2.74,2.74,0,0,1-.13-.82ZM495,109.65a1.37,1.37,0,0,1-2.67,0l.49-4.86h1.69Zm.63-9.07a2.74,2.74,0,0,1-1.83.19,2.26,2.26,0,0,1,2.91-1.68A2.73,2.73,0,0,1,495.61,100.58Zm-1-3.24a2.71,2.71,0,0,1,1.77-.51A2.27,2.27,0,0,1,493.8,99,2.72,2.72,0,0,1,494.61,97.34Zm-.22-2a2.48,2.48,0,0,1,1.52-.73,2.47,2.47,0,0,1-.47,1.61,2.42,2.42,0,0,1-1.51.74A2.52,2.52,0,0,1,494.39,95.39Zm-1.75-2.77A6.37,6.37,0,0,1,497,94.27l-.21.24a5.63,5.63,0,0,0-2.87-.76,4.24,4.24,0,0,0-4.56,4.15,4,4,0,0,0,3.3,4c1.32.31,1.56,1,1.56,1.41v.4H493c-.06-.43-.45-.7-1.58-.93-2.82-.59-4.38-2.44-4.38-5A5.23,5.23,0,0,1,492.64,92.62Zm0,4.72a2.66,2.66,0,0,1,.81,1.65,2.71,2.71,0,0,1-1.77-.51,2.68,2.68,0,0,1-.8-1.65A2.69,2.69,0,0,1,492.61,97.34Zm-1.3-2.68a2.05,2.05,0,0,1,2,2.35,2.42,2.42,0,0,1-1.51-.74A2.47,2.47,0,0,1,491.31,94.66Zm1.05,4.62a2.7,2.7,0,0,1,1.08,1.49,2.26,2.26,0,0,1-2.91-1.68A2.74,2.74,0,0,1,492.36,99.28Z" transform="translate(-9.09 -11.72)"/><path class="cls-1" d="M542.61,101.91l-1.92-4.26a2,2,0,1,0-2-2.89,11.75,11.75,0,0,1-6-1.05,2.5,2.5,0,0,0,.09-.61,2.44,2.44,0,0,0-4.88,0,2.49,2.49,0,0,0,.08.61,11.77,11.77,0,0,1-6,1.05,2,2,0,1,0-2,2.89l-1.92,4.26H517v1a3.51,3.51,0,0,0,3.51,3.51,3.57,3.57,0,0,0,1.91-.57l-2,3.09h0v0l0,0,0,0-.25,1.52,6.58,1.32c-.09.34.55.76,1,.87a1.76,1.76,0,0,0,1-.07l.18,2.56v-.07a1.37,1.37,0,0,0,2.73,0h0l.13-1.79,3.74,1.21,3.24-8,0-.46a3.38,3.38,0,0,0,1.27.25,3.51,3.51,0,0,0,3.5-3.51v-1Zm-.87,0h-3.51L540,98Zm-4.6,3a5.62,5.62,0,0,1-.91-.14,4.3,4.3,0,0,1-1.57-.79,4.56,4.56,0,0,0-1.62-.81,3.31,3.31,0,0,0-.55-.07l.38-5.46h6.41l-1.91,4.24h-.89v1A3.47,3.47,0,0,0,537.14,104.94ZM520.55,98l1.75,3.9h-3.5Zm2.62,3.9-1.91-4.24h6.4l.35,5a4.16,4.16,0,0,1-2.45-.63l-.39-.28-.27.4-.9,1.38a3.93,3.93,0,0,0,.06-.6v-1Zm-2.62,3.51a2.51,2.51,0,0,1-2.51-2.51h5A2.51,2.51,0,0,1,520.55,105.42Zm7.48,5.83a2.18,2.18,0,0,0-1.27-1.33,5,5,0,0,0-1.91,0,7,7,0,0,1-2.34-.07,3.9,3.9,0,0,1-1.1-.47c.41-.62,3.62-5.74,4-6.35a5.7,5.7,0,0,0,1.23.45,4.93,4.93,0,0,0,1.41.11l.54,7.37A1.64,1.64,0,0,0,528,111.25Zm2.6,3.9a.37.37,0,0,1-.73,0l-1.32-18.48h-8.49a1,1,0,1,1,1-1,.15.15,0,0,1,0,.07c1.84.13,5.56.23,8.11-1.65a1.48,1.48,0,0,1-.38-1,1.45,1.45,0,0,1,2.89,0,1.48,1.48,0,0,1-.38,1c2.56,1.88,6.29,1.78,8.12,1.65v-.07a1,1,0,1,1,1,1h-8.52Zm4-2.22a3.62,3.62,0,0,1-.94-.08c-.43-.11-1.09-.69-1.85-1.06l.57-7.75a3.26,3.26,0,0,1,.41,0,3.9,3.9,0,0,1,1.31.68,5.23,5.23,0,0,0,1.88.92,10.87,10.87,0,0,0,1.63.29C537.27,107,534.64,112.93,534.64,112.93Zm5.35-7.51a2.51,2.51,0,0,1-2.52-2.51h5A2.51,2.51,0,0,1,540,105.42Z" transform="translate(-9.09 -11.72)"/><path class="cls-1" d="M488.16,75.6c0,3.83,2.95,5.58,5.45,6.48a1.28,1.28,0,0,0,.62.9,1.39,1.39,0,0,0-.37.43,1.35,1.35,0,0,0-.13,1,1.41,1.41,0,0,0,.53.75c-.64.43-1.57,1.09-1.57,2.14v.79h7.9v-.79c0-1.23-1.3-1.86-1.88-2.36l-.35-.3v-.09s1.35-.33,1.35-1.42a1.46,1.46,0,0,0-.64-1.17,1.42,1.42,0,0,0,.36-.41,1.38,1.38,0,0,0,.13-1,1.47,1.47,0,0,0-.3-.55c.24-.14.49-.29.68-.42,1.11-.8,2.64-1.89,2.64-4v-2.2H500.1l.12-.7a2.45,2.45,0,0,1,.91-.28c.34,0,.7.29,1.05.29s.46-.19.46-.28-.2-.12-.41-.12-.64-.44-1.14-.44a3.82,3.82,0,0,0-.8.15,11.14,11.14,0,0,0-1.3-1.09h4.76V88.13h5.12V70.94h5.32V65.82h-5.32V59.69h-5.12v6.13h-5.32v4.85a4.06,4.06,0,0,0-1.27-.32,10.1,10.1,0,0,0-1.63.16,15.45,15.45,0,0,0-2.38-.24A5.16,5.16,0,0,0,488.16,75.6Zm11.32-8.74h5.32V60.74h3v6.12h5.31v3h-5.31V87.33h-3V69.89h-5.32Zm0,20.33v.14h-5.69v-.14c0-.58,1.39-1.28,2-1.87l1.5-.42C497.31,85.56,499.48,86.47,499.48,87.19Zm-4.67-5.9,3.27-.91a.55.55,0,0,1,.68.38.56.56,0,0,1-.38.68l-3.28.91a.56.56,0,0,1-.68-.38A.56.56,0,0,1,494.81,81.29Zm3.67,2.41-3.27.91a.54.54,0,0,1-.68-.38.56.56,0,0,1,.38-.68l3.27-.91a.55.55,0,0,1,.68.38A.54.54,0,0,1,498.48,83.7Zm3-9.19v1.1c0,1.5-1.16,2.33-2.18,3.06-.41.3-1.29.88-1.29.88l-2.15.59A7.91,7.91,0,0,0,494,78.67c-1-.73-2.18-1.56-2.18-3.06v-1.1Zm-8.32-3.14a8.27,8.27,0,0,1,2.21.25,12.7,12.7,0,0,1,1.8-.16,3.5,3.5,0,0,1,2,1l-.09.53a2.34,2.34,0,0,1-1.84.58,6.11,6.11,0,0,1-2-.71,6.91,6.91,0,0,0-2-.29,2.91,2.91,0,0,0-2.72,3,4,4,0,0,0,2,3.34c1.17.87,2,1.23,2.3,1.51l-.15,0a1.36,1.36,0,0,0-.72.5c-2.13-.79-4.6-2.23-4.6-5.39A4,4,0,0,1,493.15,71.37Z" transform="translate(-9.09 -11.72)"/><path class="cls-1" d="M543.74,76.2a4.23,4.23,0,0,0-4.57-4.36h-3.48L534,67.51a3.67,3.67,0,0,0,.29-1.44,3.79,3.79,0,1,0-7.58,0,3.72,3.72,0,0,0,.29,1.45l-1.69,4.32h-3.49a4.23,4.23,0,0,0-4.57,4.36A3.76,3.76,0,0,0,521,79.94a3.17,3.17,0,0,0,1.2-.23l-1.55,3.94-1.33,3.4c-.34.87.24,1.11.24,1.11l.77.4c.48.26.87-.09,1.12-.52l.88-1.55v.4h16.3v-.41l.9,1.56c.25.43.64.78,1.11.52l.78-.4s.57-.24.23-1.11l-1.33-3.4-1.54-3.94a3,3,0,0,0,1.18.23A3.76,3.76,0,0,0,543.74,76.2ZM530.49,63.38a2.69,2.69,0,1,1-2.68,2.69A2.69,2.69,0,0,1,530.49,63.38ZM521,78.83a2.65,2.65,0,0,1-2.66-2.63c0-2,1.32-3.25,3.46-3.25h3.05l-1.07,2.72a2.39,2.39,0,0,0-2.33-1.55,1.94,1.94,0,0,0-2,1.92,1.66,1.66,0,0,0,1.73,1.74.56.56,0,0,0,.56-.55.55.55,0,0,0-.56-.55.58.58,0,0,1-.63-.64.85.85,0,0,1,.93-.81c.92,0,1.47.63,1.47,1.69A1.85,1.85,0,0,1,521,78.83Zm-.44,8.7-.27-.14s5.1-13,7.38-18.81a3.82,3.82,0,0,0,1.25.93l1,1.71ZM530.1,73h.8l1.88,3.28h-4.57Zm-4.79,13h-1.86V84.57l1.86-3.27Zm9.17,0h-1.87V79a.6.6,0,0,0-.59-.6.59.59,0,0,0-.59.6v6.92h-1.87V79a.6.6,0,0,0-.6-.6.59.59,0,0,0-.59.6v6.92H526.5V79.23l1.08-1.89h5.83l1.07,1.86Zm3,0h-1.86V81.28l1.86,3.26Zm3.14,1.48-.27.14-10.13-17.7a1.46,1.46,0,0,0,.22,0,3.79,3.79,0,0,0,2.81-1.27C535.57,74.38,540.68,87.39,540.67,87.39Zm-2.62-10.47c0-1.06.55-1.69,1.47-1.69a.85.85,0,0,1,.93.81.58.58,0,0,1-.63.64.54.54,0,0,0-.55.55.55.55,0,0,0,.55.55A1.66,1.66,0,0,0,541.55,76a1.94,1.94,0,0,0-2-1.92,2.42,2.42,0,0,0-2.33,1.53L536.13,73h3c2.14,0,3.46,1.24,3.46,3.25A2.65,2.65,0,0,1,540,78.83,1.85,1.85,0,0,1,538.05,76.92Z" transform="translate(-9.09 -11.72)"/><path class="cls-1" d="M497.35,72.61a.28.28,0,0,0,.27-.28.27.27,0,0,0-.27-.28.28.28,0,0,0-.29.28A.29.29,0,0,0,497.35,72.61Z" transform="translate(-9.09 -11.72)"/><path class="cls-1" d="M529.46,40a1.93,1.93,0,0,0,.53,1.09,4.25,4.25,0,0,0,1.11.49h0a4.36,4.36,0,0,1-.05-.52A4.3,4.3,0,0,1,533,37.81a1.88,1.88,0,0,0,.11-.34l-.23-1.32c0-.19,0-.26-.25-.21l-1.12.22a15.32,15.32,0,0,1-2.24,2.15A4,4,0,0,1,529.46,40Zm.67-1.44a12.25,12.25,0,0,0,1.73-1.67l.13,0,.25-.05,0,.1c0,.16.06.34.08.47v.06l-.05,0a4.71,4.71,0,0,0-1.87,2.71l-.06.29-.12-.27,0-.08c0-.07,0-.47,0-.47a1,1,0,0,0,0-.17,3.58,3.58,0,0,0-.1-.8v-.06Z" transform="translate(-9.09 -11.72)"/><path class="cls-1" d="M533.59,35.19a11.26,11.26,0,0,1,.13,2,2,2,0,0,0,.67-1.18,8.7,8.7,0,0,0-.26-1.83c-.06-.09-.74-1-1.08-1-.15,0-.36.22-.49.6a9.69,9.69,0,0,1-.61,1V35C532.45,35,533.5,34.92,533.59,35.19Z" transform="translate(-9.09 -11.72)"/><path class="cls-1" d="M490.44,44.13l.89,1.09a13,13,0,0,1,1.51-1,.66.66,0,0,1,0-.21,1.4,1.4,0,0,1,.09-.51,1.49,1.49,0,0,1,1.38-1,1.49,1.49,0,0,1,1.13.52,12.32,12.32,0,0,1,1.61-.44l-.27-1.37a14.07,14.07,0,0,0-3.34,1.06A15.44,15.44,0,0,0,490.44,44.13Z" transform="translate(-9.09 -11.72)"/><path class="cls-1" d="M488.33,41.41l.85,1.13a15.54,15.54,0,0,1,2.21-1.49,1,1,0,0,1,0-.18,1.51,1.51,0,0,1,.86-1.35,1.47,1.47,0,0,1,.62-.13,1.53,1.53,0,0,1,1.1.48,16,16,0,0,1,2.41-.67c0-.16-.31-1.38-.31-1.38A17.86,17.86,0,0,0,492,39.13,18.32,18.32,0,0,0,488.33,41.41Z" transform="translate(-9.09 -11.72)"/><path class="cls-1" d="M489.94,37.91a.59.59,0,0,1,0-.14,1.49,1.49,0,0,1,.86-1.34,1.37,1.37,0,0,1,.62-.14,1.44,1.44,0,0,1,1.07.46,18.17,18.17,0,0,1,3.09-.91c-.15-.58-.24-.91-.29-1.09l-.28,0a5.94,5.94,0,0,0-1.41.22l-.22,0a5.37,5.37,0,0,1-1.44.25,2.23,2.23,0,0,1-1.77-.75c-.21-.24-.29-.26-.3-.26a.86.86,0,0,0-.15,0c-.16.08-.16.08-.16.2a1.57,1.57,0,0,0,0,.27,2.07,2.07,0,0,1,0,.35,3.23,3.23,0,0,1-1.72,2.45l-.18.13a4.76,4.76,0,0,0-1.23,1.16c.11.16.3.45.65.93A19.7,19.7,0,0,1,489.94,37.91Z" transform="translate(-9.09 -11.72)"/><path class="cls-1" d="M521.07,38.77l1.73.47a4.72,4.72,0,0,1,1.76-2.62,21.63,21.63,0,0,1-1.73-2.24c-.75.33-1.54.6-1.87.72a11.5,11.5,0,0,1,.24,2.43A5.94,5.94,0,0,1,521.07,38.77Zm1.54-3.61c.37.52.74,1,1.07,1.39a4.61,4.61,0,0,0-1.3,1.92l-.6-.17a4.9,4.9,0,0,0,.05-.77,13.4,13.4,0,0,0-.17-2Z" transform="translate(-9.09 -11.72)"/><path class="cls-1" d="M506.36,36.62a4.67,4.67,0,0,1,1.77,2.62l1.73-.47a5.19,5.19,0,0,1-.14-1.24A11.28,11.28,0,0,1,510,35.1c-.34-.12-1.12-.39-1.88-.72A19.13,19.13,0,0,1,506.36,36.62Zm2.91-1.1a12.21,12.21,0,0,0-.18,2,4.9,4.9,0,0,0,.06.77l-.61.17a4.76,4.76,0,0,0-1.29-1.92c.32-.39.7-.87,1.07-1.39Z" transform="translate(-9.09 -11.72)"/><path class="cls-1" d="M507.3,43.63a17.69,17.69,0,0,0,4.59-1.44,8.26,8.26,0,0,1-1.63-2.28c-.3.1-.88.25-2,.55A5.09,5.09,0,0,1,507.3,43.63ZM508.89,41l1-.28a9,9,0,0,0,.91,1.3,14.56,14.56,0,0,1-2.32.74A5.69,5.69,0,0,0,508.89,41Z" transform="translate(-9.09 -11.72)"/><path class="cls-1" d="M514,42.31a14,14,0,0,0,1.49.9,11,11,0,0,0,1.5-.9,6.24,6.24,0,0,1-1.5-1.75A6.11,6.11,0,0,1,514,42.31Zm1.49-.62c.15.18.3.36.47.53l-.47.27-.47-.27A5.76,5.76,0,0,0,515.46,41.69Z" transform="translate(-9.09 -11.72)"/><path class="cls-1" d="M507.65,32.8a6.11,6.11,0,0,0,.9-2.59c0-.44-.37-1.24-1-1.24s-1.22.89-1.22,1.83A2.52,2.52,0,0,0,507.65,32.8Zm-.07-3.2c.18,0,.34.46.34.61a3.77,3.77,0,0,1-.48,1.61,1.36,1.36,0,0,1-.44-1C507,30.19,507.34,29.6,507.58,29.6Z" transform="translate(-9.09 -11.72)"/><path class="cls-1" d="M523.62,43.63a5.16,5.16,0,0,1-1-3.17c-1.1-.3-1.67-.45-2-.55A8.25,8.25,0,0,1,519,42.19,17.84,17.84,0,0,0,523.62,43.63Zm-2.63-3,1,.28a5.7,5.7,0,0,0,.38,1.76,15.09,15.09,0,0,1-2.33-.74A8.28,8.28,0,0,0,521,40.67Z" transform="translate(-9.09 -11.72)"/><path class="cls-1" d="M512.26,38.09l.19-.08V38a.61.61,0,0,1,.45-.59l.16,0a.63.63,0,0,1,.59.45,1.29,1.29,0,0,1-1,1.45l-1.2.35A6.7,6.7,0,0,0,513,41.52a3.72,3.72,0,0,0,1.78-3c0-1.61-1.72-2.35-3.64-3a10.61,10.61,0,0,0-.19,2,4,4,0,0,0,.1.91Zm2,.36a2.83,2.83,0,0,1-1.19,2.2,7.31,7.31,0,0,1-.58-.69C514,39.54,514.22,38.45,514.22,38.45Zm-2.57-2.1c.72.24,1.45.54,1.45.54a1.31,1.31,0,0,0-1.21.65l-.3.09a.34.34,0,0,1,0-.1A11.5,11.5,0,0,1,511.65,36.35Z" transform="translate(-9.09 -11.72)"/><path class="cls-1" d="M524.57,30.8c0-.94-.6-1.83-1.22-1.83s-1,.8-1,1.24a6.1,6.1,0,0,0,.91,2.59A2.52,2.52,0,0,0,524.57,30.8Zm-1.22-1.2c.23,0,.58.59.58,1.2a1.37,1.37,0,0,1-.45,1,3.93,3.93,0,0,1-.48-1.61C523,30.06,523.16,29.6,523.35,29.6Z" transform="translate(-9.09 -11.72)"/><path class="cls-1" d="M517.94,41.52a6.83,6.83,0,0,0,1.52-1.93l-1.21-.35a1.3,1.3,0,0,1-1-1.45.63.63,0,0,1,.59-.45l.16,0a.61.61,0,0,1,.45.59V38l.18.08,1.23.35a4,4,0,0,0,.1-.91,10.61,10.61,0,0,0-.19-2c-1.92.67-3.64,1.41-3.64,3A3.71,3.71,0,0,0,517.94,41.52Zm1.33-5.17a11.5,11.5,0,0,1,.07,1.18s0,.07,0,.1l-.3-.09a1.31,1.31,0,0,0-1.21-.65S518.55,36.59,519.27,36.35Zm-2.58,2.1s.18,1.09,1.77,1.51a5.18,5.18,0,0,1-.58.69A2.83,2.83,0,0,1,516.69,38.45Z" transform="translate(-9.09 -11.72)"/><polygon class="cls-1" points="529.88 31.31 530.12 29.38 532.05 29.05 530.27 28.19 530.52 26.26 529.16 27.68 527.4 26.87 527.41 26.88 528.33 28.56 526.96 29.98 528.92 29.6 529.88 31.31"/><path class="cls-1" d="M532.84,40a2.51,2.51,0,0,0-.22,1,2.54,2.54,0,0,0,1,2s.87.64.89.64A6.11,6.11,0,0,1,536,45l.13.19.39,0a6.86,6.86,0,0,1,1.77.35l1,.26a2.76,2.76,0,0,0,.63.07,2.48,2.48,0,0,0,1.66-.61,2.55,2.55,0,0,0,.62-.8,3,3,0,0,0,.23-1.32v-.73a5.33,5.33,0,0,1,.12-1.23,1.38,1.38,0,0,1,.06-.26h0l.09-.25a3,3,0,0,1,1.41-1.25l.25-.21-.16-1-.29,0a4.62,4.62,0,0,1-1.07-.35c-.3-.14-1.44-.86-1.44-1.8a1.42,1.42,0,0,1,0-.19,2.11,2.11,0,0,0,0-.32.68.68,0,0,0-.46-.68.9.9,0,0,0-.37-.1,1,1,0,0,0-.68.42,1.33,1.33,0,0,1-1.08.45,4.76,4.76,0,0,1-1.17-.21,3.45,3.45,0,0,1-1.1-.64l-.23-.21-.27.17-.41.24-.25.15,0,.29a4.94,4.94,0,0,1,.12,1,2.22,2.22,0,0,1-.17.9l-.13.24-.14.2A6.09,6.09,0,0,1,534,38.74,3.62,3.62,0,0,0,532.84,40Zm3.1-2.21a3.65,3.65,0,0,0,.33-2.42l0,0a4,4,0,0,0,1.15.63,5.34,5.34,0,0,0,1.42.25,2,2,0,0,0,1.64-.7c.11-.12.15-.16.18-.17a.42.42,0,0,1,0,.27c0,.1,0,.2,0,.29a3.15,3.15,0,0,0,1.87,2.47,5,5,0,0,0,1,.36v0a3.17,3.17,0,0,0-1.53,1.58c-.7,1.41-.15,3-.5,3.7a1.76,1.76,0,0,1-1.61,1,2.06,2.06,0,0,1-.48-.05l-1-.25a7.25,7.25,0,0,0-2-.38h0A7.63,7.63,0,0,0,535,43.09l-.87-.63a1.7,1.7,0,0,1-.57-2.15C534,39.4,535.05,39.07,535.94,37.79Z" transform="translate(-9.09 -11.72)"/><path class="cls-1" d="M503.39,42.06c.54,0,.47-.6.68-.81s.8-.12.8-.69-.6-.49-.8-.68-.1-.81-.68-.81c-.35,0-.54.27-.54.68v1.63C502.85,41.77,503,42.06,503.39,42.06Z" transform="translate(-9.09 -11.72)"/><path class="cls-1" d="M485.42,47.85c-.3-.25-.63-.29-.86,0-.35.42.16.75.18,1s-.41.7,0,1.05.76-.15,1-.17.7.43,1.06,0c.23-.28.14-.59-.18-.85Z" transform="translate(-9.09 -11.72)"/><path class="cls-1" d="M553.09,63.6a3.11,3.11,0,0,0,2.4-3,3.93,3.93,0,0,0-2.17-3.39,5.57,5.57,0,0,0-.71-.38,2.71,2.71,0,0,0,2-2.67,1.52,1.52,0,0,0-1.52-1.52,1.5,1.5,0,0,0-1.08.44,1.58,1.58,0,0,0-.43.91,5.61,5.61,0,0,1-1.89.2,5.21,5.21,0,0,1-1.46-.23,9.75,9.75,0,0,0,1.48-1.17c.32-.31,1.2-.55,1.59-1.21a13.54,13.54,0,0,0,1.77-4.23,9.39,9.39,0,0,0,.28-2.19,9.83,9.83,0,0,0-.14-1.5l-.09-.67c0-.55-.17-2-1.42-2.39,0,0-2.17-3.25-2.23-3.36s-.18-.13-.26,0l-.93,1.08a2.64,2.64,0,0,0-.91.2,2.23,2.23,0,0,0-.21-.22l-.22-.16-.39-2.48-.27,0-1.32.22a2.41,2.41,0,0,1-.75-.24,2.32,2.32,0,0,1-.42-.33,2.19,2.19,0,0,0,0-.36,2.89,2.89,0,0,0-5-2,3.26,3.26,0,0,1-.54-.12,1.42,1.42,0,0,1-.58-.35L536.85,31l-2,1.2c-1.2-1-1.74-1.31-2.49-1a2,2,0,0,0-.78.62,1.24,1.24,0,0,0,.13-.5,1.44,1.44,0,0,0-1.43-1.46l-.3-.17c-.17-.41-.64-1.56-.69-1.67A.22.22,0,0,0,529,28l-2.37,1.9A3.53,3.53,0,0,0,524,27.1V24.83h-1.15v-.06a5,5,0,0,0-5-5.36,3.14,3.14,0,0,0-.47.05v-2h2.21V14h-2.21V11.72H513.8V14h-2.21v3.46h2.21v2.07a3.75,3.75,0,0,0-.69-.08c-2.95,0-5,2.2-5,5.42h-1.35v2.29a3.68,3.68,0,0,0-2.51,3.23l-1.05-.88-2-1.68-.21-.18-4.13,4.92A3.4,3.4,0,0,0,495,32a16.63,16.63,0,0,0-3,.51,2.84,2.84,0,0,0-3.44-.7,2.78,2.78,0,0,0-1.72,2.67,3.19,3.19,0,0,0,0,.42,3.43,3.43,0,0,1-.51.39l-.24.17c-1.47,1.07-2.27,2.12-2.39,3.16H477.3v5.93h4.44a5.49,5.49,0,0,0-2,4.32,6,6,0,0,0,3,5,5.15,5.15,0,0,1-1.5.24,5.69,5.69,0,0,1-1.88-.2,1.52,1.52,0,0,0-3,.17,2.81,2.81,0,0,0,2,2.67c-.22.1-2.86,1.26-2.86,3.75a3.07,3.07,0,0,0,2.41,3.06,45.79,45.79,0,1,0,75.24,0Zm-2.83-14.27a4.83,4.83,0,0,1-1.78,3.29,5.08,5.08,0,0,1-2.75,1.19,8,8,0,0,0,4,1.25c2.47,0,2.79-.5,2.79-.94a.56.56,0,0,1,.18-.42.58.58,0,0,1,.43-.18.61.61,0,0,1,.61.61c0,2.15-2.81,2.15-4,2.15l-.45,0,.73.37,1.76.78a6.67,6.67,0,0,1,1.11.54,3.09,3.09,0,0,1,1.74,2.6,2.13,2.13,0,0,1-2,2.2,1.85,1.85,0,0,1-1.85-2,.61.61,0,0,1,.61-.61.61.61,0,0,1,.61.61c0,.63.37.8.59.8a.94.94,0,0,0,.79-1c0-.58-.37-1.07-1.16-1.56a5.25,5.25,0,0,0-1-.46l-1.81-.8s-1.84-.94-2.13-1.1h0l0,0A25.53,25.53,0,0,1,543.77,54l-.46-.36.12-.09s.81.28,1,0,.06-1,.06-1l.3.06h.41a4.3,4.3,0,0,0,2.45-.87A3.57,3.57,0,0,0,549,49.22c0-.11,0-.22,0-.32a3.33,3.33,0,0,0-.72-2.15.9.9,0,0,1-.24-.59.53.53,0,0,1,.53-.56.89.89,0,0,1,.64.36,4.45,4.45,0,0,1,1,2.92C550.27,49,550.27,49.18,550.26,49.33Zm0,10.64c-.63-.74-.87-1-1.53-1.69l2,.84c.36.14.49.29.45.3A1.09,1.09,0,0,0,550.3,60ZM527.2,30.6l.64.11-.17-.49.51.25.05-.63.39.4.16-.57.38.91a1.87,1.87,0,0,1,.7.33c.13,0,.66,0,.74.31.13.48-.88.66-.88.78s.27.26.5.43a6.29,6.29,0,0,1,1.22,1.23c.11-.14.44-.53.54-.62s.62-.73.79-.79c.35-.14.77.4,1,.57a3.89,3.89,0,0,1,.87.82l1.79-1.08a2.72,2.72,0,0,0,2.37,1.51.88.88,0,0,0,.62-.18,1.74,1.74,0,0,1,2.24-.58,1.76,1.76,0,0,1,1,2.09c-.07.45.72,1.07,1.06,1.23a2.91,2.91,0,0,0,1.34.34l.56-.1.43,2.73c-2.15,1.17-2.26,1.16-2.26,3.39a5.1,5.1,0,0,1-.34,2.27,3.44,3.44,0,0,1-.91,1.19,1,1,0,0,0-.13.09,1.44,1.44,0,0,1-.05.24l.57,1a8.74,8.74,0,0,0,1.27-1.13,9.32,9.32,0,0,0,0-1.43,5.26,5.26,0,0,0,.28-2.21c0-1.55.09-1.84.64-2.22a9.86,9.86,0,0,1,1.3-.8c-.12.6-1,.89-1,1.18a.7.7,0,0,0,.26.55l.15-.13a.77.77,0,0,1,.55-.16,1.89,1.89,0,0,1,.93-.5,2.63,2.63,0,0,1,.92.22l.15-.2a1.49,1.49,0,0,1-.28-.65c0-.25-.23-.48-.68-.33l.14-.3a.61.61,0,0,1,.62-.28,1,1,0,0,1,.58,0l.52-.62.09.53.35,0-.06.43.4.07-.09.33.38.22-.73.24a1.45,1.45,0,0,1-.63,1.31.81.81,0,0,1,.07.28,1,1,0,0,1-.77.93l-.08.67a1.26,1.26,0,0,0,.53.21c1.44-.06,1.31-2.41,2.24-2.39s1,.85,1,1.49a8.87,8.87,0,0,1,0,4,11.33,11.33,0,0,1-1.29,3.29,5.1,5.1,0,0,0,.19-1l0-.51a5,5,0,0,0-1.17-3.34,1.48,1.48,0,0,0-1.11-.57,1.18,1.18,0,0,0-.87.38,1.23,1.23,0,0,0-.3.81,1.5,1.5,0,0,0,.41,1,2.76,2.76,0,0,1,.55,1.73v.27a2.91,2.91,0,0,1-1,1.92.89.89,0,0,0,0-.15,9.17,9.17,0,0,1,.37-1.12,3.9,3.9,0,0,0,.09-.72,4.92,4.92,0,0,1,.3-1c-.29.16-.91.89-1.33.9h-.31c0,.22,0,.81,0,.95s-.36,1.86-.36,1.88h0l-.57.11h0a5.47,5.47,0,0,0-.47-.38l.3-1.62L544.9,51s-.15-.25-.3-.47a.31.31,0,0,0-.28-.13L543.46,52a2.67,2.67,0,0,1,.53,1l-.19.08c0-.08-.32-.54-.65-.52s-.57.4-.62.49l-.18-.1a2.13,2.13,0,0,1,.25-.54,1.49,1.49,0,0,0-.37,0,2.21,2.21,0,0,0-.71.26l-.06-.18a1.72,1.72,0,0,1,.75-.41.3.3,0,0,0-.2-.13l-.42,0v-.16a1.31,1.31,0,0,1,.41-.15c.4,0,.59.25,1,.24l.83-1.61c0-.66.29-.71.27-1.19,0-.18,0-.34,0-.34s-1,.32-1.18.33-.15-.56-.18-.72l-.54-.93a1.8,1.8,0,0,1-1.06.1l-.09-.13s0,0,0,0a4.17,4.17,0,0,1-1.83,0h0l-1.42-.37c-.35-.1-.71-.19-1-.25a5.25,5.25,0,0,0-1.14.7.47.47,0,0,1-.48.1.44.44,0,0,1-.24-.44,2.32,2.32,0,0,0-.17-1.27,8.73,8.73,0,0,0-.88-.68l-1.18-.84-.07-.06a3.9,3.9,0,0,1-1.29-1.78h-.08L531,42.1l-.77-.11a3.77,3.77,0,0,0-1.3-1l-.2-.24a1.47,1.47,0,0,0,0-.67.75.75,0,0,0-.34-.39c-.12.16-.46.61-.72,1a5.53,5.53,0,0,1-.92,1,12.92,12.92,0,0,1,.24,1.75,2.73,2.73,0,0,1,.3.37c.11.17.53.61.59.75a.21.21,0,0,1-.12.28.82.82,0,0,1-.63-.19l-.18-.11-.1-.33-.4-.38a7.16,7.16,0,0,0-.29-1.52,4.58,4.58,0,0,0-.3-.64l.05-.21c.25-.33.8-1.12.66-1.51a1.3,1.3,0,0,0-.36-.42,1.86,1.86,0,0,1-.41-.5.63.63,0,0,1-.85-.31.55.55,0,0,1,0-.36c.07-.23.31-.29.28,0a.29.29,0,0,0,0,.16c.05.14.29.08.44,0a1.91,1.91,0,0,1,.24-1.05,2.92,2.92,0,0,1,.93-.92,7.59,7.59,0,0,1,.68-.71,8.24,8.24,0,0,1,.67-.55A4.43,4.43,0,0,0,529.38,34l-.13-.64a2.87,2.87,0,0,1-1-1.27,2.07,2.07,0,0,1-.06-.24c-.31,0-1.21-.24-1.33-.64l.85-.11Zm11.7,17.93c-.55-.7.75-1,1-.75.65.85,1.42,1.83,2.27,2.79l.28.32H542a1.76,1.76,0,0,0-.71.23l-.14.08-.15-.09C540.18,50.18,539.46,49.25,538.9,48.53Zm1.28,2.62a45.5,45.5,0,0,0-5.29-2.95,1.52,1.52,0,0,0,1.34-.33,3,3,0,0,1,.54-.4l.56.14c.29.31.77.93,1.12,1.38C538.92,49.6,539.51,50.35,540.18,51.15ZM541,48.2a2.25,2.25,0,0,0,.77,0c.07.11.09.16.14.23a1.39,1.39,0,0,0,.34,1l.69.26a3.84,3.84,0,0,1-.3.41C542,49.48,541.46,48.81,541,48.2ZM528.38,45a.81.81,0,0,0,.08-.36,1.13,1.13,0,0,0-.05-.32v-.27l3.24,0c.69,0,.91,1.16.25,1.17l-3.62.08Zm-.41-1.6-.25-.31c0-.4-.08-.77-.14-1.12a1,1,0,0,0,0-.37l.51-.62,0,.37.32.37.24.05a1,1,0,0,1,.24.13l.89.81.74.12s0,0,0,0a5.24,5.24,0,0,0,.3.51C530.05,43.45,529.05,43.47,528,43.44Zm3.8,2.44c.58,0,1.36-.05,1.78,0a4.27,4.27,0,0,1,.46.35,3.83,3.83,0,0,1,0,.85,1.32,1.32,0,0,0,.62,1.06,45.2,45.2,0,0,0-5.61-2.17C530.09,45.94,531,45.91,531.77,45.88Zm-6.43-3.19a3,3,0,0,1-.84-2.12h0a3.46,3.46,0,0,1,.12-.88,1.4,1.4,0,0,0,.73.23c.08.09.3.3.3.3a5.37,5.37,0,0,1-.59.91l-.15.69A4.61,4.61,0,0,1,525.34,42.69Zm2.25-10.14a3.59,3.59,0,0,0,.9,1.22v0a13.08,13.08,0,0,1-1.35,1.25,5.37,5.37,0,0,0-1.28.23c-.27-.31-.66-.78-1.06-1.33a4.35,4.35,0,0,0,1.58-2.06A2.35,2.35,0,0,0,527.59,32.55Zm-14.48-12a4,4,0,0,1,1.73.37V16.39h-2.22V15h2.22V12.75h1.51V15h2.21v1.4h-2.21v4.43a4,4,0,0,1,1.5-.29c2.29,0,3.89,1.74,3.89,4.24,0,0,0,0,0,.06h-1.45A2.69,2.69,0,0,0,517.62,22a2.64,2.64,0,0,0-2.14,1.26A2.49,2.49,0,0,0,513.34,22a2.62,2.62,0,0,0-2.66,2.84h-1.45v-.06C509.23,22.23,510.79,20.53,513.11,20.53Zm-5.53,5.12h15.6v1.21h-15.6Zm7.9,7.09c-1.8,0-4.18-2.38-5.43-5.05h1.59c1,1.92,2.61,3.59,3.84,3.59s2.84-1.67,3.85-3.59h1.58C519.66,30.36,517.28,32.74,515.48,32.74Zm5.82.26-.29.11a11.55,11.55,0,0,0-1-1.91c.18-.21.36-.42.53-.65A7,7,0,0,0,521.3,33Zm-3.14-.08a6.83,6.83,0,0,1,.51,1,8.77,8.77,0,0,0-3.21,1.83,8.77,8.77,0,0,0-3.21-1.83,7.65,7.65,0,0,1,.52-1,4.16,4.16,0,0,0,5.39,0Zm-7.25-1.74a11.4,11.4,0,0,0-1,1.93l-.29-.11a6.86,6.86,0,0,0,.76-2.49Zm-3.33-3.43a2.44,2.44,0,0,1,2.19,2.46,7.07,7.07,0,0,1-1,3.13c.5.21,1,.4,1.55.58a10.89,10.89,0,0,1,1.27-2.57l.13-.2.17.18c.19.2.39.39.59.57l.12.11-.08.14a10,10,0,0,0-1.06,2.16c1.55.53,3.21,1.21,4,2.41.86-1.26,2.47-1.85,4-2.41a11.35,11.35,0,0,0-1-2.14l-.08-.14.12-.11a7.87,7.87,0,0,0,.6-.57l.16-.17.14.2a11.09,11.09,0,0,1,1.26,2.54c.57-.18,1.22-.45,1.54-.58a7.29,7.29,0,0,1-1-3.13,2.44,2.44,0,0,1,2.2-2.46c1.32,0,2.43,1.4,2.43,3.05a3.38,3.38,0,0,1-1.86,3A22.84,22.84,0,0,0,525.66,36l1.22-.35-.69.58a2.6,2.6,0,0,0-1,1.3H525a.94.94,0,0,0-.82,1,.86.86,0,0,0,0,.18l0,.08,0,.07a3.91,3.91,0,0,0-.38,1.69,3.52,3.52,0,0,0,1.77,3.06l.09,0,.07.48c.09.09.41.35.41.35l.22.47.25.23-.54-.05c-5.06-.42-7.55-1.78-8.1-2.12a9.44,9.44,0,0,1-2.57,1.42A8.61,8.61,0,0,1,512.88,43a22.37,22.37,0,0,1-10.33,2.27c-1,0-2.1,0-3,0-.3,0-.37-1.18,0-1.17h3.66c2.8,0,3.8-1.82,3.8-3.51a3.62,3.62,0,0,0-1-2.62,3.51,3.51,0,0,0-2.35-1.06,4.94,4.94,0,0,0-3.63,1.52.6.6,0,0,1-.47.22.62.62,0,0,1-.39-.14.59.59,0,0,1-.21-.41.57.57,0,0,1,.14-.45,6.13,6.13,0,0,1,4.56-2,4.37,4.37,0,0,1,1.58.32A25.66,25.66,0,0,0,507,33.82a3.6,3.6,0,0,1-1.86-3C505.14,29.15,506.26,27.75,507.58,27.75ZM496,47a.42.42,0,0,1-.23.43.41.41,0,0,1-.49-.1,2.45,2.45,0,0,0-1.23-.73,7.35,7.35,0,0,1,2.21-1A2.51,2.51,0,0,0,496,47Zm0,1.2a46.37,46.37,0,0,0-5.35,3c.7-.82,1.27-1.56,1.73-2.16a16.15,16.15,0,0,1,1.3-1.56c.32-.12.83.32.93.44A1.25,1.25,0,0,0,496.09,48.19Zm.78-1.15c0-.06,0-.29,0-.37,0-.27,0-.68.28-.8a15.11,15.11,0,0,1,2,0c.75,0,1.69.06,2.73.06a44.46,44.46,0,0,0-5.66,2.19A1.25,1.25,0,0,0,496.87,47Zm1.7-7.31,0-.06h2.93a1.24,1.24,0,0,1,0-.18,1.82,1.82,0,0,1,3.53-.62,1.8,1.8,0,0,1,0,3.39,1.82,1.82,0,0,1-3.53-.62,1.1,1.1,0,0,1,0-.18h-2.42l0-.05L499,41.3A1.32,1.32,0,0,1,498.57,39.73Zm-.12-2.13-.27-1.15c.74-.87,1.3-1.54,1.57-1.87,0,0,.76.63,1.22,1A5,5,0,0,0,498.45,37.6Zm3.08,5.85c-.72,0-1.36,0-1.93,0,0-.32-.06-.54-.15-1h1.44a2.5,2.5,0,0,0,.64,1.06Zm3.07-11.39a4.25,4.25,0,0,0,1.52,1.9c-.41.55-.78,1-1.06,1.33a4.75,4.75,0,0,0-1.36-.24,6.9,6.9,0,0,0-1.78.24Zm-3.47-2.89,1.22,1-.31.36.78.66.31-.37.84.71L502.77,33l-.84-.7.31-.37-.79-.66-.9,1.09.78.66.3-.37.84.7-1.2,1.44-.84-.71.31-.37-.78-.65-2.07,2.47a.2.2,0,0,0-.06-.07,1.61,1.61,0,0,1-.66-1.57ZM486.75,36.4l.21-.15c.44-.3,1.09-.76,1-1.23a1.89,1.89,0,0,1,3.36-1.57.68.68,0,0,0,.55.21,31.6,31.6,0,0,1,3.14-.52c.84,0,1.42.25,1.61.77a87.56,87.56,0,0,1,2.24,10.28,12.17,12.17,0,0,0-4.08,1.07,14.72,14.72,0,0,0-3.44,2.44,91.09,91.09,0,0,1-6.44-8.32C484.45,38.61,485.15,37.56,486.75,36.4Zm1.94,11.65.92-1.09.68.8c-.36.46-.76,1-1.21,1.5h0A2.77,2.77,0,0,0,488.69,48.05Zm-1,0a1.67,1.67,0,0,1,.65,1.24,1.83,1.83,0,0,1-1.68,2,3.94,3.94,0,0,1-.76-.13,2.2,2.2,0,0,1-.89.26,1.83,1.83,0,0,1-1.83-1.78,2.91,2.91,0,0,1,.12-.65,3.47,3.47,0,0,1-.26-.74,1.81,1.81,0,0,1,.43-1.34,1.77,1.77,0,0,1,1.24-.65h.16a1.87,1.87,0,0,1,1.17.43,1.59,1.59,0,0,1,.13.13L488,44.66a1.55,1.55,0,0,1,.85.46,1.81,1.81,0,0,1,.33.93L487.56,48A1,1,0,0,1,487.71,48.08Zm-1-4.84a1.23,1.23,0,0,0-.56-.15,6.81,6.81,0,0,0-2.67.71V42.19h2.44Zm-5.93.24V42.39h.48v-1h-1.42v1h.48v1.09H478.4V42.39h.48v-1h-.48V39.77h6.11a1.63,1.63,0,0,1,.94,1.59h-3.32v1h.47v1.09Zm-4.38,17A3.09,3.09,0,0,1,478.08,58a6.89,6.89,0,0,1,1.13-.55l1.74-.76.73-.38-.43,0c-2.74,0-4-.68-4-2.15a.61.61,0,1,1,1.21,0,.58.58,0,0,0,.17.43c.5.5,2.1.5,2.62.5a8,8,0,0,0,4-1.25,5,5,0,0,1-2.74-1.19,4.77,4.77,0,0,1-.8-6.66,6.22,6.22,0,0,1,4.44-2.24.61.61,0,0,1,0,1.22,5,5,0,0,0-3.5,1.81,3.52,3.52,0,0,0-.7,2.47,3.61,3.61,0,0,0,1.35,2.47,3.9,3.9,0,0,0,2.33.9,3.45,3.45,0,0,0,2.65-1.43l.16-.13c.91-1,2.13-2.49,2.44-2.9s1.31.28.89.81a39.16,39.16,0,0,1-4,4.49c-.22.21-.22.21-.25.22a24.75,24.75,0,0,1-3.79,2.94c-1.66.86-2.1,1.08-2.23,1.14h0l-1.79.79a5,5,0,0,0-.95.46c-.83.51-1.2,1-1.16,1.65s.41.9.71.9c.58,0,.66-.5.66-.8a.59.59,0,0,1,.19-.43.58.58,0,0,1,.42-.18.61.61,0,0,1,.61.61,1.87,1.87,0,0,1-1.94,2A2.14,2.14,0,0,1,476.35,60.52Zm6.19-11.32h0Zm-.6,9.32A17.2,17.2,0,0,0,480.69,60a1.43,1.43,0,0,0-.14-.2,1,1,0,0,0-.74-.36c-.18,0,.1-.13.37-.24S481.94,58.52,481.94,58.52Zm33.79,75.84a44.66,44.66,0,0,1-36.45-70.87,3.12,3.12,0,0,0,.89-.54,2.87,2.87,0,0,0,.85-1.71,44.63,44.63,0,0,1,68.89,0,2.63,2.63,0,0,0,1.74,2.27,44.66,44.66,0,0,1-35.92,70.87Z" transform="translate(-9.09 -11.72)"/><path class="cls-1" d="M549.4,89.7a33.86,33.86,0,1,0-33.85,33.85A33.89,33.89,0,0,0,549.4,89.7ZM515,122.44A32.78,32.78,0,0,1,482.8,90.15H515Zm0-33.39h-32.2A32.79,32.79,0,0,1,515,57ZM516.12,57a32.8,32.8,0,0,1,32.17,32.1H516.12Zm0,65.49V90.15h32.17A32.78,32.78,0,0,1,516.12,122.44Z" transform="translate(-9.09 -11.72)"/><path class="cls-1" d="M488.51,114.25c-.12-.14-.41-.51-.73-.88-.06-.07-.15-.1-.2-.06s0,.13,0,.19c.39.44.39.53-.45,1.27l-2.74,2.39c-.08.07-.11.09-.31-.14-.48-.55-.37-1.18.26-1.73a1.06,1.06,0,0,1,1.5,0c.12.14.19.14.24.1s-.05-.23-.1-.28a1.74,1.74,0,0,0-2.55-.22c-.69.59-.45,1.49.17,2.2.23.25.52.56.72.79l.67.8c.1.12.16.13.21.09s0-.11,0-.19c-.29-.35-.32-.49.06-.82l2.66-2.33c.7-.6.83-.6,1.09-.31.05.07.11.11.16.06s.05-.12,0-.21S488.63,114.38,488.51,114.25Z" transform="translate(-9.09 -11.72)"/><path class="cls-1" d="M484.44,108.6a2.9,2.9,0,0,0-4.16-1.06,2.68,2.68,0,0,0-.79,4,2.84,2.84,0,0,0,4.05,1.13A2.8,2.8,0,0,0,484.44,108.6ZM480,111.49c-.62-1-.25-2.32,1.12-3.15,1.77-1.08,2.58-.2,2.84.22.71,1.19.14,2.5-1.13,3.28C481.27,112.77,480.38,112.19,480,111.49Z" transform="translate(-9.09 -11.72)"/><path class="cls-1" d="M482,104.88c0,.1.08.13.14.11s.08-.1,0-.22c-.13-.35-.26-.68-.28-.73s-.13-.42-.29-.87c-.05-.12-.11-.18-.18-.15s-.06.07,0,.17c.15.42.1.63-.56.89l-2.79,1,2.37-5a.48.48,0,0,0,.07-.31c0-.07-.12-.1-.29,0l-4.34,1.49c-.44.15-.6.13-.72-.22,0-.11-.09-.15-.15-.13s-.07.12,0,.23c.12.34.25.59.27.66s.15.49.27.85c.06.13.12.21.18.18s.07-.09,0-.18c-.16-.46-.1-.59.42-.79l3-1.15-2.45,4.91a.71.71,0,0,0-.08.43c0,.08.14.08.3,0l4.21-1.45C481.77,104.41,481.83,104.52,482,104.88Z" transform="translate(-9.09 -11.72)"/><path class="cls-1" d="M475.45,99.23c.08,0,.16,0,.14-.13a.12.12,0,0,0-.14-.1c-.26,0-.45-.14-.56-.71l-.21-1,3.57-.62c1.13-.19,1.23-.14,1.3.26,0,.09.05.15.13.13s.09-.07.07-.19c-.05-.29-.15-.75-.18-.91s-.09-.67-.17-1.14c0-.1-.07-.17-.14-.15s-.08.08-.07.16c.1.57,0,.66-1.15.87l-3.52.61-.14-.87c-.1-.65,0-.84.31-.91.13,0,.17-.07.15-.14s-.06-.08-.17-.07l-.82.11c-.15,0-.19.07-.18.13a3,3,0,0,1,.2.68l.56,3.24a2.45,2.45,0,0,1,0,.67c0,.07.05.08.18.1A5.73,5.73,0,0,0,475.45,99.23Z" transform="translate(-9.09 -11.72)"/><path class="cls-1" d="M473.82,92.82c0-.41.09-.46.36-.5s.44,0,1.54-.09l1.27-.06a13.29,13.29,0,0,1,1.57,0c.32,0,.38.12.39.42,0,.09,0,.15.1.15s.11-.06.11-.19c0-.29-.07-.76-.08-.92s0-.67,0-1.14c0-.13-.06-.19-.13-.18s-.1.08-.09.16c0,.41,0,.61-.31.65s-.88.07-1.58.1l-1.28.07c-1.1,0-1.3.07-1.53.06s-.4-.11-.42-.44c0-.07,0-.15-.12-.15s-.09.08-.08.2c0,.28.05.71.06.9s0,.67,0,1,.05.21.11.21S473.82,92.89,473.82,92.82Z" transform="translate(-9.09 -11.72)"/><path class="cls-1" d="M473.6,88.53c.06,0,.09,0,.1-.16,0-.51.13-.58.87-.52l3.25.22c1,.07,1,.18,1,.55,0,.09,0,.15.08.15s.11,0,.12-.17c0-.29,0-.75,0-.94s.06-.65.1-1.11c0-.14,0-.2-.1-.21s-.1.07-.1.15c0,.55-.06.66-1.11.59L476.73,87s0,0,0-.06.06-.86.09-1a.42.42,0,0,1,.48-.35.13.13,0,0,0,.15-.08c0-.1-.08-.12-.17-.12a8.58,8.58,0,0,1-1-.16.1.1,0,0,0-.1.07c0,.11.21.12.19.46l-.08,1.2s0,0,0,0l-2.11-.15s-.06,0-.05,0l.09-1.11c0-.27.14-.4.23-.43a.39.39,0,0,1,.26,0c.11,0,.16,0,.16-.1s-.05-.1-.12-.11-.51-.07-.58-.08l-.28-.07,0,0c-.06,0-.11,0-.11.09a.12.12,0,0,0,0,.07v0a1.67,1.67,0,0,1,0,.32c0,.16-.11,1.65-.13,1.93s-.06.67-.09,1C473.5,88.45,473.53,88.52,473.6,88.53Z" transform="translate(-9.09 -11.72)"/><path class="cls-1" d="M474.25,82.9c.08-.4.2-.43.47-.4s.44.08,1.52.27l1.25.24c.69.13,1.26.24,1.54.33s.34.21.28.5c0,.09,0,.16.06.17s.12,0,.14-.16c.05-.29.12-.75.15-.91s.15-.65.24-1.12c0-.12,0-.19-.08-.2s-.11.06-.12.14c-.08.4-.17.59-.46.55s-.87-.13-1.56-.26l-1.26-.24c-1.08-.21-1.28-.24-1.5-.3s-.37-.2-.3-.52c0-.07,0-.16-.09-.18s-.1,0-.12.18-.12.7-.15.88-.14.66-.2.93,0,.22.06.23S474.24,83,474.25,82.9Z" transform="translate(-9.09 -11.72)"/><path class="cls-1" d="M477.44,79.37c2,.7,3.36-.57,3.95-2.3a4.55,4.55,0,0,0,.28-1.31.31.31,0,0,0-.15-.28,7.32,7.32,0,0,0-.88-.47c-.07,0-.14,0-.16,0s0,.11.11.19c.52.36.64.76.3,1.75-.41,1.21-1.54,1.86-3.16,1.31-1.27-.48-2-1.34-1.49-2.66.28-.81.87-1.53,1.6-1.28.12,0,.2,0,.22,0s0-.13-.15-.17-.51-.2-.73-.29l-.37-.16c-.06,0-.11,0-.16.1a13.3,13.3,0,0,0-.78,1.62C475.31,77.05,475.77,78.79,477.44,79.37Z" transform="translate(-9.09 -11.72)"/><path class="cls-1" d="M477.78,71.66c.18-.36.31-.35.56-.24s.4.19,1.38.68l1.14.58a15.33,15.33,0,0,1,1.38.74c.27.17.27.29.13.56,0,.08-.05.15,0,.18s.13,0,.18-.11c.13-.27.32-.69.4-.84s.33-.58.54-1c.06-.12,0-.19,0-.22s-.12,0-.16.1c-.18.36-.32.52-.59.4s-.8-.37-1.43-.69l-1.13-.58c-1-.5-1.17-.58-1.36-.7s-.3-.29-.15-.59c0-.06.06-.15,0-.19s-.11,0-.17.13-.3.64-.39.81l-.45.84c-.06.13-.06.21,0,.24S477.75,71.73,477.78,71.66Z" transform="translate(-9.09 -11.72)"/><path class="cls-1" d="M483.65,70.16c.3.46.32.67.06,1,0,0,0,.12,0,.15s.11,0,.19-.08c.21-.31.42-.65.47-.72l.47-.63c.05-.08.07-.14,0-.19s-.11,0-.21.13-.23.19-.32.13a1.59,1.59,0,0,1-.3-.34L483.6,69s0,0,0-.07l1-1.45a.07.07,0,0,1,.06,0l1.29.31c.07,0-.11.34-.12.38s-.05.12,0,.16.15,0,.26-.16.32-.51.44-.68.32-.41.42-.56.18-.34.13-.37-.1,0-.15,0c-.21.29-.65.23-1.07.14-1.18-.24-4.27-1-4.7-1-.21,0-.28,0-.34,0s0,.17.13.38Zm.56-2.86-.9,1.26-1.25-1.81,0,0h0Z" transform="translate(-9.09 -11.72)"/><path class="cls-1" d="M486.52,59.42c.38-.32.49-.31,1,.27l1.38,1.65c1.09,1.3,2.17,1.4,3.36.4s1.05-2.28,0-3.55L491,56.76c-.47-.56-.54-.66-.19-.95.09-.08.1-.14.06-.19s-.11,0-.21.05-.43.39-.63.55-.38.28-.67.52c-.1.09-.12.16-.08.2s.11.05.19,0c.42-.35.51-.26,1,.29l1.28,1.54c.92,1.12,1.12,1.85.3,2.54s-1.69.25-2.43-.63L488.27,59c-.46-.56-.47-.69-.17-.94.08-.07.09-.13,0-.18s-.11-.05-.21,0-.46.42-.68.61-.54.41-.84.66c-.11.09-.13.16-.08.21S486.44,59.48,486.52,59.42Z" transform="translate(-9.09 -11.72)"/><path class="cls-1" d="M495.39,58c.35.65.24.72-.09.91-.1.05-.12.1-.1.15s.12.07.23,0c.33-.18.63-.37.68-.4s.39-.19.81-.42c.11-.06.16-.14.13-.2s-.09,0-.18,0c-.39.22-.61.21-1-.41l-1.47-2.58,5.29,1.55a.4.4,0,0,0,.32,0c.07,0,.08-.13,0-.28l-2.15-4.06c-.21-.4-.22-.57.1-.74.11-.06.14-.11.11-.17s-.13,0-.23,0c-.31.17-.55.34-.62.37s-.45.22-.79.4c-.12.08-.18.15-.15.21s.11,0,.18,0c.44-.24.58-.19.85.29l1.61,2.77-5.23-1.63a.64.64,0,0,0-.43,0c-.08,0-.06.15,0,.3Z" transform="translate(-9.09 -11.72)"/><path class="cls-1" d="M500.22,50.75c.39-.14.47,0,.59.2s.15.41.54,1.44l.43,1.2c.24.66.44,1.2.51,1.49s0,.39-.29.5c-.08,0-.14.07-.12.13s.1.09.22,0l.86-.35c.18-.06.63-.19,1.08-.36.12,0,.16-.11.13-.17s-.11-.06-.18,0c-.38.14-.59.17-.71-.1s-.33-.82-.57-1.48l-.44-1.2c-.37-1-.45-1.23-.51-1.44s0-.42.29-.54c.07,0,.15-.07.11-.16s-.09-.06-.21,0-.66.26-.84.32l-.9.31c-.14.05-.19.11-.17.16S500.16,50.77,500.22,50.75Z" transform="translate(-9.09 -11.72)"/><path class="cls-1" d="M503.66,49.43a.76.76,0,0,1,.91.39l2.84,4.07c.13.19.23.27.3.26s.15-.14.21-.43l1-4.68c.12-.6.21-.78.56-.85.1,0,.14-.06.13-.13s-.09-.09-.21-.06-.4.11-.67.17l-.76.13c-.16,0-.23.09-.21.17s.09.07.17.05.36,0,.37.06a.57.57,0,0,1,0,.26l-.64,3.79-1.9-2.91a2.1,2.1,0,0,1-.28-.51c0-.16.16-.19.28-.22s.14-.06.12-.13-.11-.09-.22-.06c-.36.07-.7.18-.88.22l-1,.19c-.13,0-.22.09-.2.15S503.59,49.45,503.66,49.43Z" transform="translate(-9.09 -11.72)"/><path class="cls-1" d="M511.14,48c.41,0,.57.06.59.36s0,.43.11,1.53l.08,1.28c0,.38,0,.74.06,1,0,.82,0,.9-.41.93-.09,0-.15,0-.14.1s.05.11.18.1l.92-.08c.78,0,1.5,0,2.21-.1.16,0,.21-.07.25-.23a7.2,7.2,0,0,0,0-.81c0-.1,0-.18-.11-.16s-.1,0-.11.14c0,.3-.1.43-.27.53a4.11,4.11,0,0,1-.92.15c-.52,0-.59,0-.62-.48,0-.22-.06-.86-.11-1.68a0,0,0,0,1,0,0l1,0c.34,0,.43.25.44.48a.1.1,0,0,0,.11.1c.09,0,.1-.1.09-.18,0-.39,0-.92,0-1a.08.08,0,0,0-.09-.09s-.08.07-.17.14a1.08,1.08,0,0,1-.63.18l-.78,0s-.06,0-.06,0l-.12-2s0,0,0,0c1.42-.09,1.48,0,1.57.42,0,.06,0,.13.1.13a.12.12,0,0,0,.11-.13,5.81,5.81,0,0,1,0-.94c0-.06,0-.11-.09-.11a1.47,1.47,0,0,1-.43.11l-1.83.11c-.2,0-.66,0-1.06,0-.14,0-.19.05-.19.12S511,48,511.14,48Z" transform="translate(-9.09 -11.72)"/><path class="cls-1" d="M516.68,53.17c.29,0,.75,0,.89.06l1.08.12c.12,0,.17,0,.18-.09s-.05-.1-.11-.11c-.58,0-.63-.2-.56-1l.1-1.12s0,0,0,0l.64.08a.13.13,0,0,1,.11.07c.24.34.42.7.62,1,.51.85.9,1.3,1.7,1.37l.7.06c.11,0,.18,0,.18-.09s-.05-.1-.11-.11c-.58-.05-1.06-.43-2.35-2.6a1.93,1.93,0,0,0,1.09-1.52c.1-1-.81-1.42-1.76-1.51l-1-.06c-.16,0-.61-.08-1-.11-.15,0-.2,0-.2.07s0,.12.14.13c.56,0,.57.17.51.82l-.32,3.45c-.06.71-.12.88-.54.84-.09,0-.16,0-.16.09S516.55,53.16,516.68,53.17Zm1.83-4.88s0-.1.42-.06a1.13,1.13,0,0,1,1,1.38c-.06.65-.36,1.15-1,1.08-.41,0-.58-.1-.56-.22Z" transform="translate(-9.09 -11.72)"/><path class="cls-1" d="M523.91,54.27a1.72,1.72,0,0,0,2.21-1.12c.41-1.66-1.68-2.42-1.42-3.47a.73.73,0,0,1,1-.5.89.89,0,0,1,.74,1c0,.08,0,.17.07.19s.13,0,.17-.22c.14-.56.21-.75.23-.84a.12.12,0,0,0-.07-.13,3.11,3.11,0,0,0-1-.37,1.52,1.52,0,0,0-2,1c-.39,1.61,1.67,2.31,1.36,3.55a.85.85,0,0,1-1.1.55,1,1,0,0,1-.81-1.29c0-.08,0-.16-.07-.18s-.14.06-.17.18l-.28,1C522.72,53.79,523.19,54.09,523.91,54.27Z" transform="translate(-9.09 -11.72)"/><path class="cls-1" d="M527.34,55.15c.28.09.73.23.88.29s.61.26,1.06.43c.12,0,.19,0,.22,0s0-.11-.12-.14c-.38-.14-.56-.26-.47-.54s.28-.84.53-1.5l.44-1.2c.39-1,.45-1.23.55-1.43s.26-.33.57-.21c.06,0,.15,0,.18-.06s0-.11-.15-.15l-.84-.3c-.21-.07-.63-.25-.89-.35s-.22,0-.24,0,.05.13.11.15c.38.15.39.27.31.54s-.14.41-.52,1.45l-.44,1.19c-.25.66-.45,1.2-.59,1.46s-.26.3-.54.19c-.08,0-.15,0-.18,0S527.23,55.1,527.34,55.15Z" transform="translate(-9.09 -11.72)"/><path class="cls-1" d="M530.88,56.3c0,.06,0,.12.11.19l.82.43c.32.18.85.58,1.32.84,1.6.91,3.34.78,4.3-.92s0-3.09-1.9-4.17l-1-.53c-.18-.1-.57-.36-.9-.54-.13-.07-.2-.07-.23,0s0,.11.09.17c.35.19.45.36.3.62s-.2.39-.74,1.35l-.63,1.11c-.88,1.59-1,1.66-1.27,1.5S530.92,56.24,530.88,56.3Zm2.09-.39L534.62,53c.12-.2.16-.25.6,0a2.48,2.48,0,0,1,1.19,3.53c-.8,1.43-1.77,1.64-3.11.89C532.48,56.93,532.5,56.74,533,55.91Z" transform="translate(-9.09 -11.72)"/><path class="cls-1" d="M536.74,59.59s-.11-.06-.15,0,0,.12.07.2l.68.54.58.51c.07.07.13.09.19,0s0-.1-.11-.22-.18-.24-.11-.32a1.18,1.18,0,0,1,.36-.27l.71-.38a.08.08,0,0,1,.08,0l1.35,1.14a.06.06,0,0,1,0,.07L540,62.16c0,.06-.34-.15-.38-.16s-.11-.06-.16,0,0,.15.14.27.48.36.64.5.38.35.52.47.32.2.36.16,0-.1,0-.16c-.27-.23-.17-.66,0-1.08.34-1.15,1.33-4.17,1.45-4.58.06-.21.06-.29,0-.34s-.17,0-.39.09l-4.33,2.3C537.3,59.88,537.09,59.88,536.74,59.59Zm4.58-1.26,0,0v0l-.74,2.08-1.18-1Z" transform="translate(-9.09 -11.72)"/><path class="cls-1" d="M542.16,64.26c-.11-.14-.18-.19-.24-.14s0,.12,0,.21.49.57.6.71.58.84.92,1.25c1.17,1.43,2.84,1.94,4.35.7s1.13-2.87-.27-4.57c-.28-.34-.59-.69-.73-.86s-.41-.54-.65-.83c-.09-.11-.16-.13-.21-.09s-.05.1,0,.19c.25.31.28.5,0,.69s-.33.29-1.18,1l-1,.81C542.48,64.48,542.36,64.5,542.16,64.26Zm1.85.25,2.6-2.14c.18-.15.24-.17.56.22a2.48,2.48,0,0,1-.17,3.72c-1.26,1-2.24.89-3.22-.3C543.18,65.28,543.27,65.12,544,64.51Z" transform="translate(-9.09 -11.72)"/><path class="cls-1" d="M549.89,77a.35.35,0,0,0,.3.1,6.33,6.33,0,0,0,1-.25c.07,0,.11-.08.09-.14s-.07-.08-.21-.06c-.63.08-1-.13-1.4-1.08a2.24,2.24,0,0,1,1.43-3.11c1.26-.51,2.34-.33,2.9.94.35.79.4,1.72-.31,2-.11,0-.16.12-.13.19s.11.07.23,0,.5-.21.73-.29l.38-.13c.06,0,.09-.08,0-.18a13.08,13.08,0,0,0-.52-1.73c-.7-1.59-2.22-2.56-3.84-1.84-1.91.8-2.09,2.68-1.35,4.36A4.61,4.61,0,0,0,549.89,77Z" transform="translate(-9.09 -11.72)"/><path class="cls-1" d="M550.46,78c0-.06-.05-.12-.12-.09s-.1.07-.07.19c.09.37.21.75.23.84s.11.53.17.76.05.15.14.13.08-.07,0-.25,0-.3.11-.32a1.62,1.62,0,0,1,.45,0l.79.11a.06.06,0,0,1,0,.06l.42,1.72a.07.07,0,0,1,0,.08l-1.08.76c-.06,0-.19-.31-.21-.35s-.06-.11-.12-.1-.09.13,0,.31.17.57.22.77.1.51.14.69.14.36.2.34.08-.07.06-.15c-.09-.34.25-.64.6-.89,1-.73,3.54-2.57,3.89-2.84.16-.13.21-.19.2-.27s-.12-.12-.37-.16l-4.85-.7C550.74,78.55,550.57,78.42,550.46,78Zm4.43,1.69h0l-1.82,1.24-.36-1.5Z" transform="translate(-9.09 -11.72)"/><path class="cls-1" d="M556.32,83.67c-.08,0-.16,0-.15.12a.11.11,0,0,0,.13.1c.26,0,.43.19.5.76l.12,1-3.61.31c-1.15.1-1.25,0-1.28-.37,0-.09,0-.15-.11-.14s-.11.06-.09.19c0,.29.08.75.1.92s0,.67.07,1.14c0,.11.06.19.13.17s.09-.08.08-.15c-.05-.59,0-.67,1.23-.77l3.56-.31,0,.89c.05.65-.08.83-.38.87-.14,0-.17.06-.17.13s.06.09.17.09.69,0,.84,0,.19,0,.18-.11a3.36,3.36,0,0,1-.14-.69l-.28-3.28a2.84,2.84,0,0,1,.07-.68c0-.06,0-.08-.17-.11A5.71,5.71,0,0,0,556.32,83.67Z" transform="translate(-9.09 -11.72)"/><path class="cls-1" d="M558.42,94.43c0-.06-.62-1.09-.88-1.51a2.87,2.87,0,0,0-5.73-.12,2.92,2.92,0,0,0,2.73,3.33,2.67,2.67,0,0,0,3-2.66c.15.57.35,1.32.35,1.34a.15.15,0,0,0,.21.09c.16-.1.22-.11.3-.17A.21.21,0,0,0,558.42,94.43Zm-1.27-1.31c-.11,1.18-1.16,2-2.79,1.89-2.05-.18-2.19-1.36-2.14-1.86.11-1.38,1.36-2.11,2.85-2C556.85,91.33,557.22,92.31,557.15,93.12Z" transform="translate(-9.09 -11.72)"/><path class="cls-1" d="M556.46,98.66c-.14.51-.25.48-1.07.27l-2.76-.71c-1.14-.3-1.28-.36-1.16-.81,0-.08,0-.15-.06-.16s-.12,0-.15.15-.17.73-.21.89c-.15.58-.32,1-.58,2.07-.1.36-.08.44.08.53a7.52,7.52,0,0,0,.88.35c.12,0,.17,0,.19,0s-.06-.13-.11-.15c-.47-.21-.62-.4-.43-1.16s.33-.95,1.3-.7l2.76.71c.9.24.91.3.79.76,0,.11,0,.17.07.19s.1,0,.13-.16.19-.8.24-1,.19-.64.27-1c0-.13,0-.19,0-.21S556.49,98.55,556.46,98.66Z" transform="translate(-9.09 -11.72)"/><path class="cls-1" d="M554.71,104.46c-.15.38-.28.38-.54.29s-.41-.15-1.43-.56l-1.18-.48a14.29,14.29,0,0,1-1.44-.63c-.29-.14-.29-.26-.18-.54,0-.08,0-.15,0-.18s-.13,0-.18.13l-.32.87c-.07.18-.27.6-.46,1,0,.12,0,.19,0,.22s.12,0,.15-.11c.15-.38.28-.55.55-.46s.84.31,1.48.57l1.19.48c1,.41,1.21.48,1.41.59s.32.26.2.57a.13.13,0,0,0,0,.19c.05,0,.1,0,.15-.15s.25-.66.32-.84l.38-.87c0-.14,0-.22,0-.24S554.74,104.39,554.71,104.46Z" transform="translate(-9.09 -11.72)"/><path class="cls-1" d="M550.9,107.28c-1.78-1.07-3.4-.11-4.33,1.48A4.86,4.86,0,0,0,546,110a.33.33,0,0,0,.1.3,6.44,6.44,0,0,0,.76.64c.07,0,.14,0,.17,0s0-.1-.07-.2c-.44-.46-.48-.88,0-1.78a2.25,2.25,0,0,1,3.36-.67c1.16.73,1.65,1.71,1,2.91-.44.74-1.17,1.33-1.83.94-.11-.06-.19-.06-.23,0s0,.12.11.2.46.29.67.42.27.2.32.23.12,0,.18-.06a13.12,13.12,0,0,0,1.09-1.44C552.53,110,552.43,108.18,550.9,107.28Z" transform="translate(-9.09 -11.72)"/><path class="cls-1" d="M545.52,112.07c-.25-.49-.25-.7,0-1,0,0,.06-.11,0-.16s-.12,0-.2.07l-.54.67-.52.59c-.07.07-.08.13,0,.18s.11,0,.22-.1.25-.18.33-.11a1.52,1.52,0,0,1,.27.37l.37.7a.08.08,0,0,1,0,.08l-1.15,1.35a.08.08,0,0,1-.07,0l-1.25-.43c-.07,0,.14-.34.16-.37s.06-.12,0-.16-.16,0-.28.14l-.5.64-.47.51c-.2.24-.21.33-.16.36s.1,0,.16,0c.23-.27.66-.16,1.08,0,1.15.35,4.16,1.35,4.58,1.48.21,0,.28,0,.34,0s0-.17-.09-.39Zm1.3,3.56h0l-2.08-.75,1-1.18,1.09,1.93,0,0Z" transform="translate(-9.09 -11.72)"/><path class="cls-1" d="M496.27,120.87c-.37-.23-.78-.45-1-.56s-.56-.37-.88-.56c-.13-.08-.2-.07-.23,0s0,.11.09.17c.34.21.43.37.28.63l-.78,1.33-.65,1.09c-.93,1.57-1,1.63-1.31,1.47s-.23-.12-.27,0,0,.12.11.19l.8.45c.31.19.83.6,1.29.87,1.58,1,3.33.87,4.32-.8S498.16,122,496.27,120.87Zm.78,3.85a2,2,0,0,1-3.12.8c-.82-.49-.78-.67-.29-1.49l1.73-2.89c.11-.2.16-.24.59,0A2.47,2.47,0,0,1,497.05,124.72Z" transform="translate(-9.09 -11.72)"/><path class="cls-1" d="M504,124.54l-1.71-.64c-.19-.07-.62-.25-1-.38-.13,0-.2,0-.23,0s0,.11.13.15c.38.14.5.28.39.57s-.14.4-.52,1.43l-.45,1.21c-.13.36-.26.69-.36,1-.28.76-.37.82-.75.67-.08,0-.15,0-.17,0s0,.11.13.16l.87.3c.73.27,1.39.55,2.06.8a.25.25,0,0,0,.32-.11,6.18,6.18,0,0,0,.36-.73c0-.09.06-.17,0-.19s-.11,0-.15.09c-.15.26-.27.35-.46.37a3.42,3.42,0,0,1-.9-.24c-.49-.18-.55-.22-.38-.69.07-.2.3-.8.58-1.57,0,0,0,0,.05,0s.8.32.93.36c.32.12.29.41.21.62a.09.09,0,0,0,.06.13c.09,0,.13,0,.16-.12.13-.37.4-.83.43-.92s0-.11-.05-.12-.1,0-.22.06a1.15,1.15,0,0,1-.64-.09l-.73-.28s-.05,0,0-.06l.68-1.83s0,0,0,0c1.33.49,1.36.55,1.26,1,0,.06-.05.14,0,.17a.12.12,0,0,0,.15-.08,7.67,7.67,0,0,1,.41-.85.1.1,0,0,0,0-.13A2,2,0,0,1,504,124.54Z" transform="translate(-9.09 -11.72)"/><path class="cls-1" d="M514.33,126.51a11.37,11.37,0,0,0-1.76-.39c-1.73-.17-3.32.67-3.49,2.44-.23,2.06,1.32,3.13,3.14,3.31a4.49,4.49,0,0,0,1.34,0,.32.32,0,0,0,.24-.21,5.27,5.27,0,0,0,.25-1c0-.08,0-.14-.08-.14s-.1,0-.15.15c-.23.58-.59.79-1.63.69a2.26,2.26,0,0,1-2-2.77c.18-1.36.86-2.21,2.25-2.07.85.08,1.69.5,1.61,1.26,0,.13,0,.2.1.21s.12-.06.14-.19.07-.54.11-.78.07-.33.07-.39S514.43,126.53,514.33,126.51Z" transform="translate(-9.09 -11.72)"/><path class="cls-1" d="M523.22,131.11c-.41,0-.58,0-.66-.31s-.14-.89-.21-1.55l-.14-1.27c-.12-1.08-.14-1.29-.15-1.52s.08-.41.41-.45c.11,0,.16-.05.15-.11s-.07-.1-.2-.09l-.92.12c-.2,0-.66,0-1,.1-.13,0-.2,0-.19.12s.07.1.18.09c.36,0,.56,0,.61.33s.06.43.18,1.52l0,.32a0,0,0,0,1,0,0l-2.75.3a0,0,0,0,1,0,0l0-.31c-.12-1.09-.14-1.29-.14-1.52s.07-.41.39-.45c.12,0,.17-.06.16-.13s-.07-.09-.21-.08-.73.11-.9.13-.68,0-1.06.09c-.14,0-.19.06-.18.12s.06.1.17.09c.39,0,.55,0,.61.33s0,.42.17,1.53l.14,1.27a12.9,12.9,0,0,1,.13,1.52c0,.33-.05.41-.39.45-.08,0-.15,0-.14.11s.07.1.19.09l.92-.12c.21,0,.66-.05,1.14-.11.11,0,.18-.06.17-.13s-.08-.08-.16-.08c-.41.05-.58,0-.67-.3s-.12-.88-.2-1.54l0-.44s0,0,0,0l2.75-.3h0l.06.45a14.69,14.69,0,0,1,.12,1.54c0,.31,0,.4-.39.44-.09,0-.15,0-.14.12s.07.1.2.08c.28,0,.74-.1.91-.13s.66,0,1.14-.1c.12,0,.18-.07.17-.12S523.3,131.1,523.22,131.11Z" transform="translate(-9.09 -11.72)"/><path class="cls-1" d="M528.47,129.68c-.39.11-.6.12-.7-.15s-.28-.84-.48-1.52l-.36-1.22c-.31-1.05-.37-1.25-.42-1.47s0-.41.32-.51c.07,0,.15-.06.12-.16s-.09-.06-.21,0l-.85.27-.92.25c-.14,0-.2.1-.18.15s.11.08.18.06c.39-.11.47,0,.57.24s.13.42.45,1.47l.36,1.22c.2.67.36,1.22.41,1.51s0,.4-.32.48c-.08,0-.14.07-.12.13s.09.1.21.06l.88-.29,1.1-.29c.12,0,.16-.1.14-.17S528.55,129.65,528.47,129.68Z" transform="translate(-9.09 -11.72)"/><path class="cls-1" d="M534.52,126.19c0-.11-.1-.14-.16-.11s-.06.12-.05.18c.13.5.08.74-.63,1.06s-.94.35-1.36-.57l-1.18-2.59c-.39-.85-.34-.9.09-1.09.11,0,.14-.11.1-.17s-.08-.07-.2,0l-.9.43c-.19.08-.61.25-.93.4-.13,0-.16.11-.14.17s.09.07.2,0c.47-.22.52-.11.87.66l1.19,2.59c.49,1.08.52,1.22.11,1.41-.08,0-.14.08-.1.15s.09.08.22,0l.82-.4c.54-.24,1-.4,2-.84.35-.16.39-.22.36-.4A6.77,6.77,0,0,0,534.52,126.19Z" transform="translate(-9.09 -11.72)"/><path class="cls-1" d="M539.81,123c-.06-.08-.11-.14-.17-.09s-.06.1,0,.18c.13.28.13.42,0,.59a4,4,0,0,1-.72.59c-.44.29-.51.31-.78-.11l-.93-1.39a0,0,0,0,1,0-.06s.74-.46.85-.54c.29-.18.5,0,.62.2a.11.11,0,0,0,.14,0c.08-.06,0-.14,0-.21-.21-.32-.43-.81-.48-.89a.08.08,0,0,0-.13,0s0,.1-.08.21-.12.25-.45.46l-.65.43s-.06,0-.08,0l-1.08-1.63s0,0,0,0c1.19-.78,1.25-.77,1.56-.41,0,0,.08.11.15.06a.11.11,0,0,0,0-.16,5.83,5.83,0,0,1-.45-.84c0-.05-.08-.08-.12,0a1.79,1.79,0,0,1-.33.3l-1.52,1c-.17.11-.57.35-.9.57-.11.08-.14.14-.1.2s.09,0,.19,0c.34-.23.52-.23.69,0l.85,1.27.71,1.07.56.87c.45.68.44.78.11,1-.08,0-.11.1-.07.16s.1.06.2,0,.63-.44.76-.53c.65-.43,1.28-.79,1.87-1.18a.24.24,0,0,0,.1-.33C540.12,123.61,539.9,123.17,539.81,123Z" transform="translate(-9.09 -11.72)"/><text class="cls-2" transform="translate(449.18 30.2)">R</text><path class="cls-3" d="M472.5,36.05A9.55,9.55,0,1,1,463,26.51,9.54,9.54,0,0,1,472.5,36.05Z" transform="translate(-9.09 -11.72)"/></svg>
