<svg xmlns="http://www.w3.org/2000/svg" width="532" height="532" viewBox="0 0 532 532" xmlns:xlink="http://www.w3.org/1999/xlink"><g><polygon points="297.05535 387.22082 309.71624 308.09024 224.25521 273.27278 211.59432 393.55126 297.05535 387.22082" fill="#a0616a"/><path d="M382.94672,504.16492c-7.33743,3.57727-14.81441,6.8065-22.40331,9.67132-15.17814,5.74328-30.84524,10.07668-46.9177,12.97016-15.70907,2.83616-31.83749,4.27607-47.96591,4.27607-21.78879,0-43.45167-2.61369-64.40176-7.7851-8.20377-2.01179-16.47782-4.47124-24.61164-7.33743-.85269-.30709-1.71903-.61418-2.57172-.92264-10.09067-3.66052-20.0138-7.95161-29.55921-12.80092-1.28603-.64284-2.57172-1.3007-3.8574-1.9995-1.42558-.7261-2.83718-1.49451-4.26276-2.29158-1.81696-.99225-3.61992-2.0268-5.42289-3.075-6.03741-3.49401-11.97723-7.26782-17.65159-11.19449l-.37738-.25113c-.33541-.23748-.67082-.46132-.99225-.6988,.2095-1.10416,.40536-2.11142,.58689-3.0054,.6988-3.50766,1.16012-5.43619,1.16012-5.43619l38.26627-79.04932,10.66391-22.02593,5.19905-2.13872,39.27284-16.14207h95.98743l30.286,12.52249s.15389,.57324,.46132,1.6774c3.0187,10.83144,20.62867,72.32607,47.95192,132.4927,.37704,.83802,.76875,1.69105,1.15978,2.54408Z" fill="#ffb800"/><circle cx="275.45875" cy="246.37804" r="87.14982" fill="#a0616a"/><path d="M167.97998,370.32001l-.14996,.75-26.57001,126.32996-.22998,1.10004-.37006,1.73999c-1.42999-.72998-2.83997-1.5-4.25995-2.28998-1.82001-1-3.62-2.03003-5.43005-3.08002-6.02997-3.48999-11.96997-7.27002-17.64996-11.19l-.38-.26001c-.33002-.22998-.66998-.46002-.98999-.69-4.34003-3.02997-8.57001-6.19-12.70001-9.45001-.03003-.01996-.04999-.03998-.08002-.07001-7.37-5.94-14.46997-12.32996-21.26001-19.12-4.37994-4.38-8.58997-8.88995-12.62-13.51996l.61005-2.56,.06-.26001,.75995-3.26001c6.76001-28.54999,29.63-50.46002,58.44-55.97998l38.28003-7.33002,4.53998-.85999Z" fill="#ffb800"/><path d="M439.39618,467.22529c-11.27877,9.60171-23.36792,18.2958-36.12823,25.92667-1.24372,.75476-2.51576,1.49451-3.78746,2.23562-5.42254,3.13096-10.94336,6.05174-16.53378,8.77734-7.33743,3.57727-14.81441,6.8065-22.40331,9.67132l-.58723-2.76791-30.00654-142.6813,3.88538,.74111,38.93743,7.46299c28.80445,5.52081,51.68341,27.43483,58.43362,55.98747l7.44935,31.54439,.74077,3.1023Z" fill="#ffb800"/><path d="M375.81913,269.67434c-2.26428,8.44159-13.65463,46.16328-42.82282,54.10124-5.72998,1.56548-19.3986,3.36845-15.77868,0,.82437-.76841,1.6211-1.52317,2.41783-2.26428,31.65562-29.76872,44.56948-47.96488,38.67163-88.35622-3.74583-25.71648-46.40043-49.07041-70.39754-51.39065-10.11865-.97723-23.03251,2.44581-31.55769,11.26546-14.07398,14.53428-11.75408,59.14709-19.55248,85.35219-2.09641,7.01532-4.90561,12.71766-8.94488,16.16936-2.51576,2.15237-4.12287-.58689-5.31097-5.07314-2.52941-9.5321-3.18624-26.98716-6.77818-22.05459-10.38411,14.29816-.4893,33.24908,2.50177,40.55921,.61486,1.49587,1.24372,2.93443,1.87257,4.30473v.01365c.36339,.78206,.74077,1.56548,1.10416,2.30659v.01365c9.97875,20.34853,21.97031,27.63,32.53629,40.30672,4.15085,4.96123,8.0782,10.73317,11.5862,18.44866,2.40384,5.28333,4.13686,10.59396,5.32496,15.80631,6.0514,26.13549-1.13214,49.88113-3.075,56.33823-4.06691,13.44513-11.05493,36.54656-31.55769,49.58632-25.74412,16.38092-49.23761,1.94354-60.47441,17.49873-.1399,.18152-.2658,.36305-.39137,.54457-.41935,.6292-.79673,1.25839-1.11815,1.88622-10.09067-3.66052-20.0138-7.95161-29.55921-12.80092-1.28603-.64284-2.57172-1.3007-3.8574-1.9995-1.42558-.7261-2.83718-1.49451-4.26276-2.29158-.05596-1.09051-.11192-2.17966-.15389-3.28383-.82437-18.90998,.41935-39.69253,5.12944-60.41913,3.0187-13.23494,6.00977-26.35933,10.59362-39.00738,2.99107-8.24505,6.65261-16.2963,11.47428-24.05273,3.85775-6.23326,8.44159-12.285,14.00403-18.09926,12.2154-12.75997,23.07482-18.08425,24.79384-31.55804,2.45946-19.23072-17.56799-25.01631-24.79384-54.10124-4.93325-19.88721-10.09067-48.55177-5.08713-67.86711,4.72408-18.25212,8.83296-34.0871,22.54355-49.60134,3.29816-3.71785,30.36993-29.57355,61.73211-33.82232,14.45102-1.94218,27.33724,16.56244,44.80731,20.54507,20.08341,4.57088,31.58567,7.18456,42.82247,15.77902,18.99358,14.50698,24.34617,36.19852,29.30774,56.35188,3.88538,15.76537,8.9169,36.15621,2.25029,60.86544Z" fill="#2f2e41"/></g><path d="M454.09003,77.90997C403.84998,27.66998,337.04999,0,266,0S128.15002,27.66998,77.90997,77.90997C27.66998,128.14996,0,194.95001,0,266c0,64.84998,23.04999,126.15997,65.28998,174.57001,4.03003,4.63,8.24005,9.13995,12.62,13.51996,6.79004,6.79004,13.89001,13.17999,21.26001,19.12,.03003,.03003,.04999,.05005,.08002,.07001,47.10999,38.04999,105.34003,58.72003,166.75,58.72003,71.04999,0,137.84998-27.67004,188.09003-77.91003,50.23999-50.23999,77.90997-117.03998,77.90997-188.08997s-27.66998-137.85004-77.90997-188.09003Zm-15.15002,387.39001c-17.07001,14.84998-36.07001,27.52997-56.56,37.63-7.19,3.54999-14.56,6.77997-22.09998,9.66998-29.29004,11.23999-61.08002,17.40002-94.28003,17.40002-32.03998,0-62.76001-5.73999-91.19-16.23999-11.66998-4.30005-22.95001-9.41003-33.77997-15.26001-1.59003-.85999-3.17004-1.73004-4.74005-2.62-8.25995-4.67999-16.25-9.79004-23.91998-15.31-17.14001-12.30005-32.75-26.60004-46.46997-42.56C26.09003,391.76996,2,331.64996,2,266,2,120.42999,120.42999,2,266,2s264,118.42999,264,264c0,79.47998-35.29999,150.87-91.06,199.29999Z" fill="#3f3d56"/></svg>